<mxfile host="app.diagrams.net" agent="Mozilla/5.0 (Windows NT 10.0; Win64; x64; rv:109.0) Gecko/20100101 Firefox/127.0" version="24.7.12">
  <diagram name="Page-1" id="QvYCSsmKVAELALnwq_ph">
    <mxGraphModel dx="1432" dy="729" grid="1" gridSize="10" guides="1" tooltips="1" connect="1" arrows="1" fold="1" page="1" pageScale="1" pageWidth="850" pageHeight="1100" math="0" shadow="0">
      <root>
        <mxCell id="0" />
        <mxCell id="1" parent="0" />
        <mxCell id="_-BYKyto2-eJF8JkZxCt-1" value="prescribe exams" style="ellipse;whiteSpace=wrap;html=1;" vertex="1" parent="1">
          <mxGeometry x="190" y="720" width="90" height="50" as="geometry" />
        </mxCell>
        <mxCell id="_-BYKyto2-eJF8JkZxCt-2" value="Make appointment" style="ellipse;whiteSpace=wrap;html=1;" vertex="1" parent="1">
          <mxGeometry x="190" y="570" width="90" height="50" as="geometry" />
        </mxCell>
        <mxCell id="_-BYKyto2-eJF8JkZxCt-3" value="Patients" style="shape=umlActor;verticalLabelPosition=bottom;verticalAlign=top;html=1;outlineConnect=0;fillColor=#dae8fc;strokeColor=#6c8ebf;" vertex="1" parent="1">
          <mxGeometry x="60" y="570" width="30" height="60" as="geometry" />
        </mxCell>
        <mxCell id="_-BYKyto2-eJF8JkZxCt-4" value="Doctors" style="shape=umlActor;verticalLabelPosition=bottom;verticalAlign=top;html=1;outlineConnect=0;fillColor=#dae8fc;strokeColor=#6c8ebf;" vertex="1" parent="1">
          <mxGeometry x="60" y="730" width="30" height="60" as="geometry" />
        </mxCell>
        <mxCell id="_-BYKyto2-eJF8JkZxCt-5" value="System" style="shape=umlActor;verticalLabelPosition=bottom;verticalAlign=top;html=1;outlineConnect=0;fillColor=#dae8fc;strokeColor=#6c8ebf;" vertex="1" parent="1">
          <mxGeometry x="540" y="620" width="30" height="60" as="geometry" />
        </mxCell>
        <mxCell id="_-BYKyto2-eJF8JkZxCt-6" value="" style="endArrow=none;html=1;rounded=0;exitX=0.5;exitY=0.5;exitDx=0;exitDy=0;exitPerimeter=0;entryX=0;entryY=0.5;entryDx=0;entryDy=0;" edge="1" parent="1" source="_-BYKyto2-eJF8JkZxCt-3" target="_-BYKyto2-eJF8JkZxCt-2">
          <mxGeometry width="50" height="50" relative="1" as="geometry">
            <mxPoint x="400" y="810" as="sourcePoint" />
            <mxPoint x="450" y="760" as="targetPoint" />
          </mxGeometry>
        </mxCell>
        <mxCell id="_-BYKyto2-eJF8JkZxCt-7" value="" style="endArrow=none;html=1;rounded=0;exitX=0.5;exitY=0.5;exitDx=0;exitDy=0;exitPerimeter=0;entryX=0;entryY=0.5;entryDx=0;entryDy=0;" edge="1" parent="1" source="_-BYKyto2-eJF8JkZxCt-4" target="_-BYKyto2-eJF8JkZxCt-1">
          <mxGeometry width="50" height="50" relative="1" as="geometry">
            <mxPoint x="400" y="810" as="sourcePoint" />
            <mxPoint x="450" y="760" as="targetPoint" />
          </mxGeometry>
        </mxCell>
        <mxCell id="_-BYKyto2-eJF8JkZxCt-9" value="&lt;div&gt;email&amp;nbsp;&lt;/div&gt;&lt;div&gt;notification&lt;/div&gt;" style="ellipse;whiteSpace=wrap;html=1;" vertex="1" parent="1">
          <mxGeometry x="350" y="530" width="90" height="50" as="geometry" />
        </mxCell>
        <mxCell id="_-BYKyto2-eJF8JkZxCt-10" value="&lt;div&gt;email&amp;nbsp;&lt;/div&gt;&lt;div&gt;notification&lt;/div&gt;" style="ellipse;whiteSpace=wrap;html=1;" vertex="1" parent="1">
          <mxGeometry x="350" y="680" width="90" height="50" as="geometry" />
        </mxCell>
        <mxCell id="_-BYKyto2-eJF8JkZxCt-11" value="" style="endArrow=open;html=1;rounded=0;exitX=1;exitY=0.5;exitDx=0;exitDy=0;entryX=0;entryY=0.5;entryDx=0;entryDy=0;endFill=0;" edge="1" parent="1" source="_-BYKyto2-eJF8JkZxCt-1" target="_-BYKyto2-eJF8JkZxCt-10">
          <mxGeometry width="50" height="50" relative="1" as="geometry">
            <mxPoint x="400" y="810" as="sourcePoint" />
            <mxPoint x="450" y="760" as="targetPoint" />
          </mxGeometry>
        </mxCell>
        <mxCell id="_-BYKyto2-eJF8JkZxCt-12" value="" style="endArrow=open;html=1;rounded=0;exitX=0.989;exitY=0.24;exitDx=0;exitDy=0;entryX=0;entryY=0.5;entryDx=0;entryDy=0;exitPerimeter=0;endFill=0;" edge="1" parent="1" source="_-BYKyto2-eJF8JkZxCt-2" target="_-BYKyto2-eJF8JkZxCt-9">
          <mxGeometry width="50" height="50" relative="1" as="geometry">
            <mxPoint x="290" y="755" as="sourcePoint" />
            <mxPoint x="360" y="715" as="targetPoint" />
          </mxGeometry>
        </mxCell>
        <mxCell id="_-BYKyto2-eJF8JkZxCt-14" value="Order the Exam" style="ellipse;whiteSpace=wrap;html=1;" vertex="1" parent="1">
          <mxGeometry x="350" y="770" width="90" height="50" as="geometry" />
        </mxCell>
        <mxCell id="_-BYKyto2-eJF8JkZxCt-15" value="" style="endArrow=open;html=1;rounded=0;exitX=0.911;exitY=0.72;exitDx=0;exitDy=0;entryX=0;entryY=0.5;entryDx=0;entryDy=0;exitPerimeter=0;endFill=0;" edge="1" parent="1" source="_-BYKyto2-eJF8JkZxCt-1" target="_-BYKyto2-eJF8JkZxCt-14">
          <mxGeometry width="50" height="50" relative="1" as="geometry">
            <mxPoint x="290" y="755" as="sourcePoint" />
            <mxPoint x="360" y="715" as="targetPoint" />
          </mxGeometry>
        </mxCell>
        <mxCell id="_-BYKyto2-eJF8JkZxCt-16" value="" style="endArrow=none;html=1;rounded=0;exitX=1;exitY=0.5;exitDx=0;exitDy=0;entryX=0.5;entryY=0.5;entryDx=0;entryDy=0;entryPerimeter=0;" edge="1" parent="1" source="_-BYKyto2-eJF8JkZxCt-9" target="_-BYKyto2-eJF8JkZxCt-5">
          <mxGeometry width="50" height="50" relative="1" as="geometry">
            <mxPoint x="85" y="770" as="sourcePoint" />
            <mxPoint x="200" y="755" as="targetPoint" />
          </mxGeometry>
        </mxCell>
        <mxCell id="_-BYKyto2-eJF8JkZxCt-17" value="" style="endArrow=none;html=1;rounded=0;exitX=1;exitY=0.5;exitDx=0;exitDy=0;entryX=0.5;entryY=0.5;entryDx=0;entryDy=0;entryPerimeter=0;" edge="1" parent="1" source="_-BYKyto2-eJF8JkZxCt-10" target="_-BYKyto2-eJF8JkZxCt-5">
          <mxGeometry width="50" height="50" relative="1" as="geometry">
            <mxPoint x="450" y="565" as="sourcePoint" />
            <mxPoint x="605" y="670" as="targetPoint" />
          </mxGeometry>
        </mxCell>
        <mxCell id="_-BYKyto2-eJF8JkZxCt-19" value="Appointment and exams" style="swimlane;whiteSpace=wrap;html=1;" vertex="1" parent="1">
          <mxGeometry x="120" y="450" width="400" height="435" as="geometry" />
        </mxCell>
      </root>
    </mxGraphModel>
  </diagram>
</mxfile>
